<svg xmlns="http://www.w3.org/2000/svg" width="16" height="16">
    <path fill="#25324d"
          d="M 4 2.5 C 3.169 2.5 2.5 3.169 2.5 4 L 2.5 12 C 2.5 12.831 3.169 13.5 4 13.5 L 6 13.5 L 6 9 L 13.5 9 L 13.5 4 C 13.5 3.169 12.831 2.5 12 2.5 L 4 2.5 z "/>
    <path fill="#548af7"
          d="m 4,3 h 8 c 0.5523,0 1,0.44772 1,1 v 5 h 1 V 4 C 14,2.89543 13.1046,2 12,2 H 4 C 2.89543,2 2,2.89543 2,4 v 8 c 0,1.1046 0.89543,2 2,2 H 6 V 13 H 4 C 3.44772,13 3,12.5523 3,12 V 4 C 3,3.44772 3.44772,3 4,3 z"/>
    <path fill="#e7effd"
          d="M 7 10 L 7 16 L 8 16 L 8 13.25 L 9.75 13.25 L 9.75 12.25 L 8 12.25 L 8 11 L 9.75 11 L 9.75 10 L 7 10 z"/>
    <rect fill="#e7effd" x="10.25" y="10" width="1" height="6"/>
    <path fill="#e7effd"
          d="m 11.5,10 1.675,3 -1.675,3 h 1.15 l 1.1,-1.97 1.1,1.97 H 16 L 14.325,13 16,10 h -1.15 l -1.1,1.97 -1.1,-1.97 z"/>
</svg>
